<svg width="173" height="40" viewBox="0 0 173 40" fill="none" xmlns="http://www.w3.org/2000/svg">
<path d="M17.684 3.30459C16.7909 2.59009 15.7192 2.05421 14.5581 1.69695C13.397 1.3397 12.1466 1.16107 10.9855 1.16107H0.625194C0.267941 1.16107 0 1.42901 0 1.78627V30.0093C0 30.3665 0.267941 30.6345 0.625194 30.6345H3.66185C4.0191 30.6345 4.28704 30.3665 4.28704 30.0093V19.5596C4.28704 19.2024 4.55498 18.9344 4.91224 18.9344H11.5214C12.9504 18.9344 14.2901 18.6665 15.4512 18.1306C16.6123 17.5947 17.5947 16.8802 18.3986 16.0764C19.2024 15.2726 19.8276 14.2901 20.1848 13.2184C20.6314 12.1466 20.81 11.0749 20.81 10.0924C20.81 8.48477 20.5421 7.14507 19.9169 5.984C19.2917 5.00155 18.5772 4.10841 17.684 3.30459ZM16.3443 10.1817C16.3443 10.8069 16.255 11.4321 15.9871 11.968C15.8085 12.5932 15.4512 13.1291 15.0046 13.5756C14.5581 14.0222 14.0222 14.4688 13.397 14.7367C12.7718 15.0046 11.968 15.1833 11.0749 15.1833H4.82292C4.46567 15.1833 4.19773 14.9153 4.19773 14.5581V5.80537C4.19773 5.44811 4.46567 5.18017 4.82292 5.18017H10.9855C12.5039 5.18017 13.8436 5.62674 14.826 6.43056C15.8085 7.23438 16.3443 8.48477 16.3443 10.1817Z" fill="#282D3D"/>
<path d="M56.8033 12.9504C56.0888 11.7894 55.1063 10.8962 53.8559 10.271C52.6949 9.64584 51.2658 9.3779 49.7475 9.3779C47.8719 9.3779 46.2643 9.82447 44.9246 10.6283C43.5849 11.4321 42.5131 12.6825 41.7986 14.2008C41.4414 15.0046 41.0841 15.9871 40.9948 16.9695C40.8162 17.952 40.7269 19.0237 40.7269 20.2741C40.7269 21.9711 40.8162 23.4001 41.0841 24.6505C41.3521 25.9009 41.7093 26.9726 42.3345 27.8658C43.049 28.9375 44.0315 29.7413 45.2818 30.2772C46.4429 30.8131 47.8719 31.0811 49.3903 31.0811C51.0872 31.0811 52.6055 30.7238 53.8559 30.0986C55.1956 29.3841 56.2674 28.4016 56.9819 27.1513C57.4285 26.3474 57.7857 25.2757 58.0537 24.0253C58.2323 22.7749 58.3216 21.2566 58.3216 19.4703C58.3216 18.1306 58.2323 16.8802 57.9644 15.8085C57.6071 14.6474 57.2498 13.7543 56.8033 12.9504ZM54.2132 19.5596C54.2132 20.6314 54.2132 21.5245 54.1239 22.1497C54.1239 22.7749 54.0346 23.3108 53.8559 23.8467C53.4987 25.0077 52.8735 25.9009 52.0697 26.4368C51.2658 26.9726 50.2834 27.2406 49.3009 27.2406C48.3185 27.2406 47.5147 26.9726 46.8002 26.5261C46.0857 26.0795 45.5498 25.365 45.1925 24.5612C44.9246 24.0253 44.746 23.3108 44.6567 22.6856C44.5673 21.9711 44.5673 21.1673 44.5673 20.2741C44.5673 19.381 44.6567 18.5772 44.746 17.7734C44.8353 17.0589 45.0139 16.3443 45.2818 15.8085C45.6391 14.9153 46.2643 14.2901 46.9788 13.7543C47.6933 13.3077 48.5864 13.0397 49.5689 13.0397C50.462 13.0397 51.2658 13.3077 52.0697 13.7543C52.7842 14.2008 53.3201 14.9153 53.6773 15.8978C53.8559 16.3443 54.0346 16.8802 54.1239 17.5054C54.2132 18.0413 54.2132 18.7558 54.2132 19.5596Z" fill="#282D3D"/>
<path d="M76.095 12.7718C75.5591 11.7894 74.7553 10.8962 73.7729 10.271C72.7904 9.64584 71.54 9.3779 70.0217 9.3779C68.9499 9.3779 67.9675 9.55653 66.985 10.0031C66.5385 10.1817 66.0026 10.4497 65.556 10.8069C65.1095 11.0749 64.5736 10.8069 64.5736 10.271C64.5736 9.91378 64.3056 9.64584 63.9484 9.64584H61.269C60.9117 9.64584 60.6438 9.91378 60.6438 10.271V38.4047C60.6438 38.762 60.9117 39.0299 61.269 39.0299H63.9484C64.3056 39.0299 64.5736 38.762 64.5736 38.4047V30.6345C64.5736 30.0986 65.1095 29.8307 65.556 30.0986C65.824 30.2772 66.1812 30.4559 66.4492 30.5452C67.3423 30.9024 68.3247 31.0811 69.3965 31.0811C71.0041 31.0811 72.4332 30.7238 73.5049 30.0986C74.5767 29.4734 75.4698 28.5803 76.095 27.5978C76.7202 26.6154 77.1668 25.365 77.3454 24.1146C77.6133 22.7749 77.7027 21.4352 77.7027 20.1848C77.7027 18.9344 77.6133 17.5947 77.3454 16.3443C77.0775 14.9153 76.7202 13.7543 76.095 12.7718ZM73.5049 20.1848C73.5049 20.9886 73.4156 21.7925 73.3263 22.6856C73.237 23.4894 72.969 24.2039 72.7011 24.9184C72.4332 25.5436 71.8973 26.0795 71.3614 26.4368C70.7362 26.794 69.9324 27.0619 68.9499 27.0619C67.9675 27.0619 67.1637 26.8833 66.6278 26.4368C66.0919 25.9902 65.6453 25.4543 65.2881 24.8291C65.0202 24.2039 64.7522 23.4001 64.6629 22.5963C64.5736 21.7925 64.4843 20.9886 64.4843 20.1848C64.4843 19.4703 64.5736 18.6665 64.6629 17.8627C64.7522 17.0588 65.0202 16.255 65.2881 15.6298C65.6453 15.0046 66.0919 14.3794 66.7171 13.9329C67.3423 13.4863 68.0568 13.3077 69.0393 13.3077C70.0217 13.3077 70.8255 13.4863 71.4507 13.9329C71.9866 14.3794 72.4332 14.9153 72.7011 15.5405C72.969 16.255 73.1477 16.9695 73.237 17.7734C73.4156 18.5772 73.5049 19.381 73.5049 20.1848Z" fill="#282D3D"/>
<path d="M84.1332 25.365V0.625194C84.1332 0.267941 83.8652 0 83.508 0H80.7393C80.382 0 80.1141 0.267941 80.1141 0.625194V25.6329C80.1141 27.5085 80.65 28.8482 81.6324 29.5627C82.6148 30.2772 83.8652 30.7238 85.4729 30.7238H86.5446C86.9019 30.7238 87.1698 30.4559 87.1698 30.0986V27.6871C87.1698 27.3299 86.9019 27.062 86.5446 27.062H85.9194C84.6691 27.062 84.1332 26.5261 84.1332 25.365Z" fill="#282D3D"/>
<path d="M170.946 27.0619C170.231 27.0619 169.785 26.8833 169.517 26.4367C169.249 25.9009 169.16 25.365 169.16 24.8291V13.7542C169.16 13.397 169.427 13.1291 169.785 13.1291H171.75C172.107 13.1291 172.375 12.8611 172.375 12.5039V10.1817C172.375 9.82446 172.107 9.55652 171.75 9.55652H169.785C169.427 9.55652 169.16 9.28858 169.16 8.93132V5.00153C169.16 4.64428 168.892 4.37634 168.534 4.37634H165.766C165.408 4.37634 165.14 4.64428 165.14 5.00153V8.84201C165.14 9.19927 164.872 9.4672 164.515 9.4672H163.265C162.908 9.4672 162.64 9.73514 162.64 10.0924V12.4145C162.64 12.7718 162.908 13.0397 163.265 13.0397H164.515C164.872 13.0397 165.14 13.3077 165.14 13.6649V25.6329C165.14 27.3299 165.587 28.5803 166.569 29.4734C167.463 30.3665 168.713 30.8131 170.231 30.8131H172.375C172.732 30.8131 173 30.5452 173 30.1879V27.6871C173 27.3299 172.732 27.0619 172.375 27.0619H170.946Z" fill="#FF3200"/>
<path d="M33.7605 18.1306H26.0795C25.7223 18.1306 25.365 17.7733 25.4543 17.4161C25.6329 16.1657 26.0795 15.1833 26.7047 14.4688C27.5085 13.5756 28.5803 13.1291 29.92 13.1291C31.2597 13.1291 32.3314 13.5756 33.1353 14.4688C33.7605 15.1833 34.207 16.1657 34.3857 17.4161C34.3857 17.7733 34.1177 18.1306 33.7605 18.1306ZM34.475 25.7222C33.9391 26.1688 33.3139 26.5261 32.5994 26.794C31.7956 27.1513 30.9917 27.2406 30.3666 27.2406C29.5627 27.2406 28.7589 27.0619 28.1337 26.794C27.5085 26.5261 26.9727 26.0795 26.6154 25.6329C26.1688 25.097 25.9009 24.4719 25.6329 23.8467C25.4543 23.1322 25.2757 22.4176 25.2757 21.6138V21.5245H37.8689C38.2261 21.5245 38.4941 21.2566 38.4941 20.8993V18.5772C38.4941 17.1482 38.3154 15.8085 37.8689 14.6474C37.4223 13.4863 36.7971 12.5039 36.0826 11.7C35.2788 10.8962 34.3857 10.271 33.4032 9.82446C31.5276 9.02064 29.2948 8.93133 26.9726 9.73515C25.9009 10.0924 24.9184 10.7176 24.1146 11.5214C23.2215 12.3252 22.507 13.4863 21.9711 14.9153C21.5245 16.4336 21.2566 18.1306 21.2566 20.1848C21.2566 22.239 21.5245 24.1146 22.0604 25.5436C22.5963 26.9726 23.3108 28.0444 24.1146 28.8482C25.0078 29.652 25.9902 30.1879 27.062 30.5452C28.1337 30.8131 29.2055 30.9917 30.2772 30.9917C31.6169 30.9917 32.8673 30.8131 34.1177 30.3665C35.1895 30.0093 36.1719 29.4734 37.0651 28.6696L37.1544 28.5803C37.4223 28.4016 37.5116 27.9551 37.2437 27.6871L36.9757 27.3299L35.7254 25.9902L35.4574 25.7222C35.1895 25.4543 34.8322 25.4543 34.5643 25.6329L34.475 25.7222Z" fill="#282D3D"/>
<path d="M100.478 18.1306H92.7966C92.4394 18.1306 92.0821 17.7733 92.1714 17.4161C92.3501 16.1657 92.7966 15.1833 93.4218 14.4688C94.2257 13.5756 95.2974 13.1291 96.6371 13.1291C97.9768 13.1291 99.0486 13.5756 99.8524 14.4688C100.478 15.1833 100.924 16.1657 101.103 17.4161C101.192 17.7733 100.924 18.1306 100.478 18.1306ZM101.192 25.7222C100.656 26.1688 100.031 26.5261 99.3165 26.794C98.5127 27.1513 97.7089 27.2406 97.0837 27.2406C96.2799 27.2406 95.476 27.0619 94.8508 26.794C94.2257 26.5261 93.6898 26.0795 93.3325 25.6329C92.886 25.097 92.618 24.4719 92.3501 23.8467C92.1714 23.1322 91.9928 22.4176 91.9928 21.6138V21.5245H104.586C104.943 21.5245 105.211 21.2566 105.211 20.8993V18.5772C105.211 17.1482 105.033 15.8085 104.586 14.6474C104.139 13.4863 103.514 12.5039 102.8 11.7C101.996 10.8962 101.103 10.271 100.12 9.82446C98.2448 9.02064 96.0119 8.93133 93.6898 9.73515C92.618 10.0924 91.6356 10.7176 90.8317 11.5214C89.9386 12.3252 89.2241 13.4863 88.6882 14.9153C88.1523 16.3443 87.8844 18.0413 87.8844 20.0955C87.8844 22.1497 88.1523 24.0253 88.6882 25.4543C89.2241 26.8833 89.9386 27.9551 90.7424 28.7589C91.6356 29.5627 92.618 30.0986 93.6898 30.4558C94.7615 30.7238 95.8333 30.9024 96.9051 30.9024C98.2448 30.9024 99.4951 30.7238 100.746 30.2772C101.817 29.92 102.8 29.3841 103.693 28.5803L103.782 28.491C104.05 28.3123 104.139 27.8658 103.872 27.5978L103.604 27.2406L102.353 25.9009L102.085 25.6329C101.817 25.365 101.46 25.365 101.192 25.5436V25.7222Z" fill="#282D3D"/>
<path d="M142.008 18.1306H134.327C133.97 18.1306 133.613 17.7733 133.702 17.4161C133.881 16.1657 134.327 15.1833 134.952 14.4688C135.756 13.5756 136.828 13.1291 138.168 13.1291C139.507 13.1291 140.579 13.5756 141.383 14.4688C142.008 15.1833 142.455 16.1657 142.633 17.4161C142.723 17.7733 142.365 18.1306 142.008 18.1306ZM142.723 25.7222C142.187 26.1688 141.562 26.5261 140.847 26.794C140.043 27.1513 139.24 27.2406 138.614 27.2406C137.81 27.2406 137.007 27.0619 136.381 26.794C135.756 26.5261 135.22 26.0795 134.863 25.6329C134.417 25.097 134.149 24.4719 133.881 23.8467C133.702 23.1322 133.523 22.4176 133.523 21.6138V21.5245H146.117C146.474 21.5245 146.742 21.2566 146.742 20.8993V18.5772C146.742 17.1482 146.563 15.8085 146.117 14.6474C145.67 13.4863 145.045 12.5039 144.33 11.7C143.527 10.8962 142.633 10.271 141.651 9.82446C139.775 9.02064 137.543 8.93133 135.22 9.73515C134.149 10.0924 133.166 10.7176 132.362 11.5214C131.469 12.3252 130.755 13.4863 130.219 14.9153C129.683 16.3443 129.415 18.0413 129.415 20.0955C129.415 22.1497 129.683 24.0253 130.219 25.4543C130.755 26.8833 131.469 27.9551 132.273 28.7589C133.166 29.5627 134.149 30.0986 135.22 30.4558C136.292 30.7238 137.364 30.9024 138.436 30.9024C139.775 30.9024 141.026 30.7238 142.276 30.2772C143.348 29.92 144.33 29.3841 145.224 28.5803L145.313 28.491C145.581 28.3123 145.67 27.8658 145.402 27.5978L145.134 27.2406L143.884 25.9009L143.616 25.6329C143.348 25.365 142.991 25.365 142.723 25.5436V25.7222Z" fill="#FF3200"/>
<path d="M161.479 10.0031C161.121 9.82445 160.764 9.64583 160.318 9.55651C159.692 9.37789 158.978 9.28857 158.263 9.28857C157.102 9.28857 156.03 9.4672 155.137 9.91377C154.78 10.0924 154.334 10.3603 153.976 10.6283C153.53 10.9855 152.905 10.6283 152.905 10.0924C152.905 9.73514 152.637 9.4672 152.279 9.4672H149.6C149.243 9.4672 148.975 9.73514 148.975 10.0924V30.0093C148.975 30.3665 149.243 30.6345 149.6 30.6345H152.279C152.637 30.6345 152.905 30.3665 152.905 30.0093V17.952C152.905 16.3443 153.351 15.1833 154.155 14.3794C154.959 13.5756 156.03 13.2184 157.37 13.2184C158.263 13.2184 159.067 13.397 159.692 13.7542L159.782 13.8436C160.05 14.0222 160.496 13.8436 160.675 13.5756L160.764 13.397L161.836 11.0748V10.9855C162.014 10.7176 161.925 10.271 161.657 10.0924L161.479 10.0031Z" fill="#FF3200"/>
<path d="M128.522 6.69852C127.718 5.09088 126.646 3.75118 125.128 2.76873C123.52 1.60766 121.466 1.07178 119.055 1.07178C117.268 1.07178 115.75 1.33972 114.41 1.96491C113.071 2.5901 111.999 3.39393 111.106 4.37637C110.213 5.35882 109.588 6.51989 109.141 7.85959C108.694 9.19929 108.516 10.539 108.516 11.968V19.9169C108.516 21.3459 108.694 22.7749 109.141 24.1146C109.588 25.4543 110.213 26.6154 111.106 27.5979C111.999 28.5803 113.071 29.3841 114.41 30.0093C115.75 30.6345 117.268 30.9024 119.055 30.9024C121.466 30.9024 123.52 30.3666 125.217 29.2055C126.736 28.1337 127.897 26.794 128.701 25.0078L128.79 24.8291C128.879 24.4719 128.79 24.1146 128.433 24.0253L128.254 23.936L125.753 22.8642L125.575 22.7749C125.217 22.6856 124.86 22.8642 124.771 23.2215L124.681 23.4001C124.235 24.3826 123.61 25.1864 122.717 25.8116C121.734 26.5261 120.484 26.9727 119.055 26.9727C117.983 26.9727 117.001 26.794 116.197 26.3475C115.393 25.9009 114.768 25.365 114.232 24.7398C113.696 24.1146 113.339 23.3108 113.071 22.4177C112.803 21.5245 112.624 20.6314 112.624 19.7383V12.1466C112.624 11.2535 112.803 10.3604 113.071 9.55655C113.339 8.75273 113.696 7.94891 114.232 7.32371C114.768 6.69852 115.393 6.16264 116.197 5.71607C117.001 5.35882 117.894 5.09088 119.055 5.09088C120.484 5.09088 121.734 5.44813 122.627 6.16264C123.431 6.78783 124.146 7.59165 124.592 8.48479L124.681 8.66341C124.86 9.02067 125.217 9.10998 125.485 9.02067L125.753 8.93135L128.075 7.85959L128.254 7.77028C128.611 7.68097 128.701 7.2344 128.611 6.96646L128.522 6.69852Z" fill="#FF3200"/>
</svg>
